<svg width="22" height="20" fill="none" xmlns="http://www.w3.org/2000/svg"><ellipse cx="10.634" cy="10" rx="10.634" ry="10" fill="#fff"/><path d="M20.767 10c0 5.218-4.507 9.5-10.133 9.5C5.008 19.5.5 15.218.5 10S5.008.5 10.634.5 20.767 4.782 20.767 10z" stroke="#000" stroke-opacity=".8"/><path d="M5.645 9.693a.5.5 0 0 0 .003.707l3.197 3.169a.5.5 0 1 0 .704-.71l-2.842-2.817 2.815-2.84a.5.5 0 0 0-.71-.704L5.644 9.693zM16.63 9.5l-10.634.045.005 1 10.634-.045-.005-1z" fill="#000" fill-opacity=".8"/></svg>