<svg width="20" height="20" viewBox="0 0 20 20" fill="none" xmlns="http://www.w3.org/2000/svg">
<g clip-path="url(#clip0_32_17632)">
<path d="M9.99984 1.6665C6.77484 1.6665 4.1665 4.27484 4.1665 7.49984C4.1665 8.94984 4.58317 10.3082 5.3415 11.5332C6.13317 12.8165 7.17484 13.9165 7.97484 15.1998C8.3665 15.8248 8.64984 16.4082 8.94984 17.0832C9.1665 17.5415 9.3415 18.3332 9.99984 18.3332C10.6582 18.3332 10.8332 17.5415 11.0415 17.0832C11.3498 16.4082 11.6248 15.8248 12.0165 15.1998C12.8165 13.9248 13.8582 12.8248 14.6498 11.5332C15.4165 10.3082 15.8332 8.94984 15.8332 7.49984C15.8332 4.27484 13.2248 1.6665 9.99984 1.6665ZM9.99984 9.7915C8.84984 9.7915 7.9165 8.85817 7.9165 7.70817C7.9165 6.55817 8.84984 5.62484 9.99984 5.62484C11.1498 5.62484 12.0832 6.55817 12.0832 7.70817C12.0832 8.85817 11.1498 9.7915 9.99984 9.7915Z" fill="black"/>
</g>
<defs>
<clipPath id="clip0_32_17632">
<rect width="20" height="20" fill="white"/>
</clipPath>
</defs>
</svg>
