<svg width="32" height="30" fill="none" xmlns="http://www.w3.org/2000/svg"><g clip-path="url(#a)"><path d="M.016 20h31.417v10H.016V20z" fill="#1EB53A"/><path d="M.016 0h31.417v10H.016V0z" fill="#0099B5"/><path d="M.016 9.6h31.417v10.8H.016V9.6z" fill="#CE1126"/><path d="M.016 10.2h31.417v9.6H.016v-9.6zM6.613 8.4c1.562 0 2.828-1.612 2.828-3.6S8.175 1.2 6.613 1.2c-1.561 0-2.827 1.612-2.827 3.6s1.266 3.6 2.827 3.6z" fill="#fff"/><path d="M7.556 8.4c1.561 0 2.827-1.612 2.827-3.6S9.117 1.2 7.556 1.2c-1.562 0-2.828 1.612-2.828 3.6s1.266 3.6 2.828 3.6z" fill="#0099B5"/><path d="m12.833 6.961-.18.684.274.12" fill="#fff"/><path d="m12.833 6.961.179.684-.273.12" fill="#fff"/><path d="m13.375 7.439-.569.04-.02.342" fill="#fff"/><path d="m13.379 7.448-.474.434-.164-.259" fill="#fff"/><path d="m12.287 7.448.474.434.164-.259" fill="#fff"/><path d="m12.29 7.439.57.04.019.342" fill="#fff"/><path d="m13.158 8.261-.154-.685-.286.122" fill="#fff"/><path d="m13.162 8.256-.459-.401.178-.312" fill="#fff"/><path d="m12.498 8.27.462-.434-.156-.293" fill="#fff"/><path d="m12.495 8.267.183-.69.27.097M12.833 4.081l-.18.684.274.12" fill="#fff"/><path d="m12.833 4.081.179.684-.273.12" fill="#fff"/><path d="m13.375 4.559-.569.04-.02.342" fill="#fff"/><path d="m13.379 4.568-.474.434-.164-.259" fill="#fff"/><path d="m12.287 4.568.474.434.164-.259" fill="#fff"/><path d="m12.29 4.559.57.04.019.342" fill="#fff"/><path d="m13.158 5.381-.154-.685-.286.122" fill="#fff"/><path d="m13.162 5.376-.459-.401.178-.312" fill="#fff"/><path d="m12.498 5.39.462-.434-.156-.293" fill="#fff"/><path d="m12.495 5.387.183-.69.27.097M12.833 1.201l-.18.684.274.12" fill="#fff"/><path d="m12.833 1.201.179.684-.273.12" fill="#fff"/><path d="m13.375 1.679-.569.04-.02.342" fill="#fff"/><path d="m13.379 1.688-.474.434-.164-.259" fill="#fff"/><path d="m12.287 1.688.474.434.164-.259" fill="#fff"/><path d="m12.29 1.679.57.04.019.342" fill="#fff"/><path d="m13.158 2.501-.154-.685-.286.122" fill="#fff"/><path d="m13.162 2.496-.459-.401.178-.312" fill="#fff"/><path d="m12.498 2.51.462-.434-.156-.293" fill="#fff"/><path d="m12.495 2.507.183-.69.27.097M15.095 6.961l-.18.684.274.12" fill="#fff"/><path d="m15.095 6.961.179.684-.273.12" fill="#fff"/><path d="m15.637 7.439-.569.04-.02.342" fill="#fff"/><path d="m15.64 7.448-.474.434-.163-.259" fill="#fff"/><path d="m14.549 7.448.474.434.164-.259" fill="#fff"/><path d="m14.553 7.439.568.04.02.342" fill="#fff"/><path d="m15.42 8.261-.155-.685-.285.122" fill="#fff"/><path d="m15.424 8.256-.459-.401.178-.312" fill="#fff"/><path d="m14.76 8.27.462-.434-.156-.293" fill="#fff"/><path d="m14.757 8.267.183-.69.27.097M15.095 4.081l-.18.684.274.12" fill="#fff"/><path d="m15.095 4.081.179.684-.273.12" fill="#fff"/><path d="m15.637 4.559-.569.04-.02.342" fill="#fff"/><path d="m15.64 4.568-.474.434-.163-.259" fill="#fff"/><path d="m14.549 4.568.474.434.164-.259" fill="#fff"/><path d="m14.553 4.559.568.04.02.342" fill="#fff"/><path d="m15.42 5.381-.155-.685-.285.122" fill="#fff"/><path d="m15.424 5.376-.459-.401.178-.312" fill="#fff"/><path d="m14.76 5.39.462-.434-.156-.293" fill="#fff"/><path d="m14.757 5.387.183-.69.27.097M15.095 1.201l-.18.684.274.12" fill="#fff"/><path d="m15.095 1.201.179.684-.273.12" fill="#fff"/><path d="m15.637 1.679-.569.04-.02.342" fill="#fff"/><path d="m15.64 1.688-.474.434-.163-.259" fill="#fff"/><path d="m14.549 1.688.474.434.164-.259" fill="#fff"/><path d="m14.553 1.679.568.04.02.342" fill="#fff"/><path d="m15.42 2.501-.155-.685-.285.122" fill="#fff"/><path d="m15.424 2.496-.459-.401.178-.312" fill="#fff"/><path d="m14.76 2.51.462-.434-.156-.293" fill="#fff"/><path d="m14.757 2.507.183-.69.27.097M17.357 6.961l-.18.684.274.12" fill="#fff"/><path d="m17.357 6.961.179.684-.273.12" fill="#fff"/><path d="m17.899 7.439-.569.04-.02.342" fill="#fff"/><path d="m17.903 7.448-.474.434-.164-.259" fill="#fff"/><path d="m16.81 7.448.475.434.164-.259" fill="#fff"/><path d="m16.815 7.439.569.04.019.342" fill="#fff"/><path d="m17.682 8.261-.155-.685-.285.122" fill="#fff"/><path d="m17.686 8.256-.459-.401.178-.312" fill="#fff"/><path d="m17.022 8.27.462-.434-.156-.293" fill="#fff"/><path d="m17.02 8.267.182-.69.27.097M17.357 4.081l-.18.684.274.12" fill="#fff"/><path d="m17.357 4.081.179.684-.273.12" fill="#fff"/><path d="m17.899 4.559-.569.04-.02.342" fill="#fff"/><path d="m17.903 4.568-.474.434-.164-.259" fill="#fff"/><path d="m16.81 4.568.475.434.164-.259" fill="#fff"/><path d="m16.815 4.559.569.04.019.342" fill="#fff"/><path d="m17.682 5.381-.155-.685-.285.122" fill="#fff"/><path d="m17.686 5.376-.459-.401.178-.312" fill="#fff"/><path d="m17.022 5.39.462-.434-.156-.293" fill="#fff"/><path d="m17.02 5.387.182-.69.27.097M17.357 1.201l-.18.684.274.12" fill="#fff"/><path d="m17.357 1.201.179.684-.273.12" fill="#fff"/><path d="m17.899 1.679-.569.04-.02.342" fill="#fff"/><path d="m17.903 1.688-.474.434-.164-.259" fill="#fff"/><path d="m16.81 1.688.475.434.164-.259" fill="#fff"/><path d="m16.815 1.679.569.04.019.342" fill="#fff"/><path d="m17.682 2.501-.155-.685-.285.122" fill="#fff"/><path d="m17.686 2.496-.459-.401.178-.312" fill="#fff"/><path d="m17.022 2.51.462-.434-.156-.293" fill="#fff"/><path d="m17.02 2.507.182-.69.27.097M8.309 6.961l-.18.684.274.12" fill="#fff"/><path d="m8.309 6.961.179.684-.274.12" fill="#fff"/><path d="m8.85 7.439-.568.04-.02.342" fill="#fff"/><path d="m8.855 7.448-.475.434-.163-.259" fill="#fff"/><path d="m7.763 7.448.474.434.164-.259" fill="#fff"/><path d="m7.767 7.439.568.04.02.342" fill="#fff"/><path d="m8.634 8.261-.155-.685-.285.122" fill="#fff"/><path d="m8.638 8.256-.459-.401.178-.312" fill="#fff"/><path d="m7.974 8.27.462-.434-.156-.293" fill="#fff"/><path d="m7.971 8.267.183-.69.27.097M10.57 6.961l-.178.684.273.12" fill="#fff"/><path d="m10.57 6.961.18.684-.274.12" fill="#fff"/><path d="m11.113 7.439-.569.04-.02.342" fill="#fff"/><path d="m11.117 7.448-.475.434-.163-.259" fill="#fff"/><path d="m10.025 7.448.474.434.164-.259" fill="#fff"/><path d="m10.029 7.439.568.04.02.342" fill="#fff"/><path d="m10.896 8.261-.155-.685-.285.122" fill="#fff"/><path d="m10.9 8.256-.459-.401.178-.312" fill="#fff"/><path d="m10.236 8.27.462-.434-.157-.293" fill="#fff"/><path d="m10.233 8.267.183-.69.27.097M10.57 4.081l-.178.684.273.12" fill="#fff"/><path d="m10.57 4.081.18.684-.274.12" fill="#fff"/><path d="m11.113 4.559-.569.04-.02.342" fill="#fff"/><path d="m11.117 4.568-.475.434-.163-.259" fill="#fff"/><path d="m10.025 4.568.474.434.164-.259" fill="#fff"/><path d="m10.029 4.559.568.04.02.342" fill="#fff"/><path d="m10.896 5.381-.155-.685-.285.122" fill="#fff"/><path d="m10.9 5.376-.459-.401.178-.312" fill="#fff"/><path d="m10.236 5.39.462-.434-.157-.293" fill="#fff"/><path d="m10.233 5.387.183-.69.27.097" fill="#fff"/></g><defs><clipPath id="a"><rect x=".016" width="31.417" height="30" rx="15" fill="#fff"/></clipPath></defs></svg>